<svg class="icon" viewBox="0 0 1025 1024" xmlns="http://www.w3.org/2000/svg" width="16.016" height="16"><defs><style/></defs><path d="M690.325 102.848c-13.802 2.453-44.629 14.293-44.885 39.808-.256 25.493 27.05 42.133 40.832 43.413 50.88 0 294.208-13.205 249.707 221.568-6.166 25.75-10.88 65.174 19.669 73.472 27.755 6.976 44.885-22.016 52.587-44.096 3.69-25.685 116.224-362.154-317.91-334.165zm63.296 392.939s-51.008 11.029-26.88-26.923c37.888-74.219-23.786-196.01-183.658-115.072-55.083 29.355-55.083 8.555-53.248-28.16 4.949-200.47-366.635-57.536-471.915 203.115C-41.43 686.912 53.632 823.552 200.683 883.2c358.933 128.128 620.266-83.904 664.81-220.95 59.414-205.93-111.872-166.463-111.872-166.463zM409.43 835.797C239.531 859.136 88.94 784.47 73.003 669.12c-15.851-115.413 108.992-227.947 278.89-251.285 169.899-23.36 320.47 51.242 336.406 166.656 15.872 115.392-109.014 227.84-278.87 251.306z"/><path d="M834.624 435.35c17.088 4.266 23.744-9.75 25.621-22.55 1.75-12.8 31.254-186.325-158.25-166.315-14.336 1.579-24 10.155-22.336 22.742 1.578 12.608 12.202 19.669 20.288 18.709 8.085-.939 134.656-23.125 124.288 110.25 1.898 12.14-6.635 32.897 10.389 37.163zM354.07 498.624c-88.555 16.981-149.462 87.744-135.98 158.08 13.483 70.336 96.257 113.536 184.854 96.533 88.576-16.96 149.419-87.744 135.979-158.037-13.547-70.315-96.256-113.557-184.854-96.576zm-10.518 189.76c-30.592 0-55.403-21.013-55.403-47.125 0-26.006 24.811-47.126 55.403-47.126s55.381 21.12 55.381 47.126c0 26.069-24.81 47.125-55.381 47.125zm90.73-63.595c-11.413 0-23.018-13.76-23.018-30.698 0-16.918 11.605-30.635 23.019-30.635s23.061 13.717 23.061 30.635c0 16.96-11.648 30.698-23.061 30.698z"/></svg>